STARTFONT 2.1
COMMENT $XConsortium: luBS12.bdf,v 1.7 94/04/02 15:59:31 gildea Exp $
COMMENT  (c) Copyright Bigelow & Holmes 1986, 1985. Lucida is a registered
COMMENT  trademark of Bigelow & Holmes. See LEGAL NOTICE file for terms 
COMMENT  of the license. 
COMMENT GRID 0012 0012 0200 0200
FONT -RFX-Serene-Bold-R-Normal-Sans-12-120-75-75-P-79-windows-1251
SIZE 12 72 72
FONTBOUNDINGBOX 16 13 0 -2
STARTPROPERTIES 24
FONTNAME_REGISTRY ""
FOUNDRY "RFX"
FAMILY_NAME "Serene"
WEIGHT_NAME "Bold"
SLANT "R"
SETWIDTH_NAME "Normal"
ADD_STYLE_NAME "Sans"
PIXEL_SIZE 12
POINT_SIZE 120
RESOLUTION_X 75
RESOLUTION_Y 75
SPACING "P"
AVERAGE_WIDTH 79
CHARSET_REGISTRY "windows"
CHARSET_ENCODING "1251"
FONT_ASCENT 11
FONT_DESCENT 2
DEFAULT_CHAR 32
COPYRIGHT "Copyright Bigelow & Holmes 1986, 1985."
FACE_NAME "Lucida Sans Bold"
COPYRIGHT2 "Cyrillic and Euro glyphs copyright 2000 Dmitry Yu. Bolkhovityanov, bolkhov@inp.nsk.su"
SOURCEDATE "Thu Jul 20 13:06:34 2000"
PKGVERSION "1.1"
ASSEMBLER "cvtbdf.pl (Linux)"
ENDPROPERTIES
CHARS 244
STARTCHAR space
ENCODING 32
SWIDTH 343 0
DWIDTH 4 0
BBX 0 0 0 0
BITMAP
ENDCHAR
STARTCHAR exclam
ENCODING 33
SWIDTH 265 0
DWIDTH 4 0
BBX 2 9 1 0
BITMAP
C0
C0
C0
C0
C0
40
00
C0
C0
ENDCHAR
STARTCHAR quotedbl
ENCODING 34
SWIDTH 530 0
DWIDTH 6 0
BBX 5 4 1 6
BITMAP
D8
D8
90
90
ENDCHAR
STARTCHAR numbersign
ENCODING 35
SWIDTH 687 0
DWIDTH 8 0
BBX 7 9 1 0
BITMAP
6C
6C
FE
6C
6C
FE
6C
6C
6C
ENDCHAR
STARTCHAR dollar
ENCODING 36
SWIDTH 687 0
DWIDTH 8 0
BBX 6 11 1 -1
BITMAP
10
78
D4
D0
F0
78
3C
2C
AC
78
20
ENDCHAR
STARTCHAR percent
ENCODING 37
SWIDTH 898 0
DWIDTH 11 0
BBX 11 9 0 0
BITMAP
7080
D980
DB00
7600
0400
0DC0
1B60
3360
21C0
ENDCHAR
STARTCHAR ampersand
ENCODING 38
SWIDTH 792 0
DWIDTH 10 0
BBX 8 9 2 0
BITMAP
78
CC
CC
68
33
5A
CC
C6
7B
ENDCHAR
STARTCHAR quotesingle
ENCODING 39
SWIDTH 265 0
DWIDTH 3 0
BBX 2 4 1 6
BITMAP
C0
C0
80
80
ENDCHAR
STARTCHAR parenleft
ENCODING 40
SWIDTH 386 0
DWIDTH 5 0
BBX 4 11 1 -1
BITMAP
30
60
60
C0
C0
C0
C0
C0
60
60
30
ENDCHAR
STARTCHAR parenright
ENCODING 41
SWIDTH 386 0
DWIDTH 5 0
BBX 4 11 0 -1
BITMAP
C0
60
60
30
30
30
30
30
60
60
C0
ENDCHAR
STARTCHAR asterisk
ENCODING 42
SWIDTH 464 0
DWIDTH 6 0
BBX 5 5 1 4
BITMAP
20
A8
70
A8
20
ENDCHAR
STARTCHAR plus
ENCODING 43
SWIDTH 687 0
DWIDTH 8 0
BBX 7 7 1 1
BITMAP
10
10
10
FE
10
10
10
ENDCHAR
STARTCHAR comma
ENCODING 44
SWIDTH 343 0
DWIDTH 3 0
BBX 2 4 1 -2
BITMAP
C0
C0
40
80
ENDCHAR
STARTCHAR minus
ENCODING 45
SWIDTH 687 0
DWIDTH 8 0
BBX 7 1 1 4
BITMAP
FE
ENDCHAR
STARTCHAR period
ENCODING 46
SWIDTH 343 0
DWIDTH 3 0
BBX 2 2 1 0
BITMAP
C0
C0
ENDCHAR
STARTCHAR slash
ENCODING 47
SWIDTH 596 0
DWIDTH 7 0
BBX 7 11 0 -1
BITMAP
06
06
0C
0C
18
38
30
60
60
C0
C0
ENDCHAR
STARTCHAR zero
ENCODING 48
SWIDTH 687 0
DWIDTH 8 0
BBX 6 9 1 0
BITMAP
78
CC
CC
CC
CC
CC
CC
CC
78
ENDCHAR
STARTCHAR one
ENCODING 49
SWIDTH 687 0
DWIDTH 8 0
BBX 4 9 1 0
BITMAP
30
F0
30
30
30
30
30
30
30
ENDCHAR
STARTCHAR two
ENCODING 50
SWIDTH 687 0
DWIDTH 8 0
BBX 6 9 1 0
BITMAP
78
CC
0C
0C
18
30
60
FC
FC
ENDCHAR
STARTCHAR three
ENCODING 51
SWIDTH 687 0
DWIDTH 8 0
BBX 6 9 1 0
BITMAP
78
CC
0C
0C
38
0C
0C
CC
78
ENDCHAR
STARTCHAR four
ENCODING 52
SWIDTH 687 0
DWIDTH 8 0
BBX 7 9 1 0
BITMAP
0C
1C
2C
4C
8C
FE
FE
0C
0C
ENDCHAR
STARTCHAR five
ENCODING 53
SWIDTH 687 0
DWIDTH 8 0
BBX 6 9 1 0
BITMAP
7C
7C
40
40
78
0C
0C
CC
78
ENDCHAR
STARTCHAR six
ENCODING 54
SWIDTH 687 0
DWIDTH 8 0
BBX 6 9 1 0
BITMAP
78
CC
C0
C0
F8
CC
CC
CC
78
ENDCHAR
STARTCHAR seven
ENCODING 55
SWIDTH 687 0
DWIDTH 8 0
BBX 6 9 1 0
BITMAP
FC
FC
0C
18
18
30
30
60
60
ENDCHAR
STARTCHAR eight
ENCODING 56
SWIDTH 687 0
DWIDTH 8 0
BBX 6 9 1 0
BITMAP
78
CC
CC
EC
78
DC
CC
CC
78
ENDCHAR
STARTCHAR nine
ENCODING 57
SWIDTH 687 0
DWIDTH 8 0
BBX 6 9 1 0
BITMAP
78
CC
CC
CC
7C
0C
0C
CC
78
ENDCHAR
STARTCHAR colon
ENCODING 58
SWIDTH 343 0
DWIDTH 3 0
BBX 2 7 1 0
BITMAP
C0
C0
00
00
00
C0
C0
ENDCHAR
STARTCHAR semicolon
ENCODING 59
SWIDTH 343 0
DWIDTH 3 0
BBX 2 9 1 -2
BITMAP
C0
C0
00
00
00
C0
C0
40
80
ENDCHAR
STARTCHAR less
ENCODING 60
SWIDTH 687 0
DWIDTH 8 0
BBX 6 7 1 1
BITMAP
0C
38
60
C0
60
38
0C
ENDCHAR
STARTCHAR equal
ENCODING 61
SWIDTH 687 0
DWIDTH 8 0
BBX 6 3 1 3
BITMAP
FC
00
FC
ENDCHAR
STARTCHAR greater
ENCODING 62
SWIDTH 687 0
DWIDTH 8 0
BBX 6 7 1 1
BITMAP
C0
70
18
0C
18
70
C0
ENDCHAR
STARTCHAR question
ENCODING 63
SWIDTH 572 0
DWIDTH 7 0
BBX 5 9 1 0
BITMAP
70
98
18
30
60
60
00
60
60
ENDCHAR
STARTCHAR at
ENCODING 64
SWIDTH 833 0
DWIDTH 10 0
BBX 9 9 1 0
BITMAP
3E00
6300
CF00
DB00
DB00
DB00
CD80
6000
3F00
ENDCHAR
STARTCHAR A
ENCODING 65
SWIDTH 773 0
DWIDTH 9 0
BBX 7 9 1 0
BITMAP
18
18
2C
2C
4C
7E
C6
C6
C6
ENDCHAR
STARTCHAR B
ENCODING 66
SWIDTH 669 0
DWIDTH 9 0
BBX 6 9 2 0
BITMAP
F8
CC
CC
C8
F0
C8
CC
CC
F8
ENDCHAR
STARTCHAR C
ENCODING 67
SWIDTH 726 0
DWIDTH 9 0
BBX 7 9 2 0
BITMAP
3C
66
C0
C0
C0
C0
C0
62
3C
ENDCHAR
STARTCHAR D
ENCODING 68
SWIDTH 819 0
DWIDTH 10 0
BBX 7 9 2 0
BITMAP
F8
CC
C6
C6
C6
C6
C6
CC
F8
ENDCHAR
STARTCHAR E
ENCODING 69
SWIDTH 645 0
DWIDTH 8 0
BBX 6 9 2 0
BITMAP
FC
C0
C0
C0
F8
C0
C0
C0
FC
ENDCHAR
STARTCHAR F
ENCODING 70
SWIDTH 602 0
DWIDTH 7 0
BBX 6 9 2 0
BITMAP
FC
C0
C0
C0
F8
C0
C0
C0
C0
ENDCHAR
STARTCHAR G
ENCODING 71
SWIDTH 759 0
DWIDTH 9 0
BBX 7 9 1 0
BITMAP
3C
66
C0
C0
C0
C6
C6
66
3E
ENDCHAR
STARTCHAR H
ENCODING 72
SWIDTH 813 0
DWIDTH 10 0
BBX 7 9 2 0
BITMAP
C6
C6
C6
C6
FE
C6
C6
C6
C6
ENDCHAR
STARTCHAR I
ENCODING 73
SWIDTH 361 0
DWIDTH 5 0
BBX 2 9 2 0
BITMAP
C0
C0
C0
C0
C0
C0
C0
C0
C0
ENDCHAR
STARTCHAR J
ENCODING 74
SWIDTH 501 0
DWIDTH 6 0
BBX 4 10 1 -1
BITMAP
30
30
30
30
30
30
30
30
30
E0
ENDCHAR
STARTCHAR K
ENCODING 75
SWIDTH 753 0
DWIDTH 9 0
BBX 7 9 2 0
BITMAP
C6
CC
C8
D0
F0
D8
DC
CC
C6
ENDCHAR
STARTCHAR L
ENCODING 76
SWIDTH 620 0
DWIDTH 8 0
BBX 6 9 2 0
BITMAP
C0
C0
C0
C0
C0
C0
C0
C0
FC
ENDCHAR
STARTCHAR M
ENCODING 77
SWIDTH 940 0
DWIDTH 12 0
BBX 9 9 2 0
BITMAP
E380
E380
E380
B580
B580
B580
9980
9980
8180
ENDCHAR
STARTCHAR N
ENCODING 78
SWIDTH 783 0
DWIDTH 10 0
BBX 7 9 2 0
BITMAP
E2
E2
B2
B2
BA
9A
8E
8E
86
ENDCHAR
STARTCHAR O
ENCODING 79
SWIDTH 855 0
DWIDTH 11 0
BBX 8 9 2 0
BITMAP
3C
66
C3
C3
C3
C3
C3
66
3C
ENDCHAR
STARTCHAR P
ENCODING 80
SWIDTH 657 0
DWIDTH 8 0
BBX 6 9 2 0
BITMAP
F8
CC
CC
CC
C8
F0
C0
C0
C0
ENDCHAR
STARTCHAR Q
ENCODING 81
SWIDTH 855 0
DWIDTH 11 0
BBX 8 11 2 -2
BITMAP
3C
66
C3
C3
C3
C3
C3
66
3C
06
03
ENDCHAR
STARTCHAR R
ENCODING 82
SWIDTH 734 0
DWIDTH 9 0
BBX 7 9 2 0
BITMAP
F8
CC
CC
C8
F0
D8
D8
CC
CE
ENDCHAR
STARTCHAR S
ENCODING 83
SWIDTH 594 0
DWIDTH 8 0
BBX 6 9 1 0
BITMAP
78
CC
C0
E0
78
1C
0C
CC
78
ENDCHAR
STARTCHAR T
ENCODING 84
SWIDTH 735 0
DWIDTH 9 0
BBX 8 9 1 0
BITMAP
FF
18
18
18
18
18
18
18
18
ENDCHAR
STARTCHAR U
ENCODING 85
SWIDTH 783 0
DWIDTH 10 0
BBX 7 9 2 0
BITMAP
C6
C6
C6
C6
C6
C6
C6
6C
38
ENDCHAR
STARTCHAR V
ENCODING 86
SWIDTH 735 0
DWIDTH 9 0
BBX 8 9 1 0
BITMAP
C3
C3
C3
62
66
34
3C
18
18
ENDCHAR
STARTCHAR W
ENCODING 87
SWIDTH 940 0
DWIDTH 12 0
BBX 10 9 1 0
BITMAP
C0C0
CCC0
CCC0
6D80
6D80
7F80
3300
3300
3300
ENDCHAR
STARTCHAR X
ENCODING 88
SWIDTH 699 0
DWIDTH 9 0
BBX 7 9 1 0
BITMAP
C6
C6
6C
78
38
6C
6C
C6
C6
ENDCHAR
STARTCHAR Y
ENCODING 89
SWIDTH 738 0
DWIDTH 9 0
BBX 8 9 1 0
BITMAP
C3
C3
62
66
34
18
18
18
18
ENDCHAR
STARTCHAR Z
ENCODING 90
SWIDTH 675 0
DWIDTH 8 0
BBX 6 9 1 0
BITMAP
FC
0C
18
38
30
60
60
C0
FC
ENDCHAR
STARTCHAR bracketleft
ENCODING 91
SWIDTH 386 0
DWIDTH 5 0
BBX 4 11 1 -1
BITMAP
F0
C0
C0
C0
C0
C0
C0
C0
C0
C0
F0
ENDCHAR
STARTCHAR backslash
ENCODING 92
SWIDTH 596 0
DWIDTH 7 0
BBX 7 11 0 -1
BITMAP
C0
C0
60
60
30
38
18
0C
0C
06
06
ENDCHAR
STARTCHAR bracketright
ENCODING 93
SWIDTH 386 0
DWIDTH 5 0
BBX 4 11 0 -1
BITMAP
F0
30
30
30
30
30
30
30
30
30
F0
ENDCHAR
STARTCHAR asciicircum
ENCODING 94
SWIDTH 687 0
DWIDTH 8 0
BBX 7 7 1 2
BITMAP
10
38
28
6C
44
C6
82
ENDCHAR
STARTCHAR underscore
ENCODING 95
SWIDTH 500 0
DWIDTH 9 0
BBX 7 1 1 -1
BITMAP
FE
ENDCHAR
STARTCHAR grave
ENCODING 96
SWIDTH 675 0
DWIDTH 8 0
BBX 3 2 2 8
BITMAP
C0
60
ENDCHAR
STARTCHAR a
ENCODING 97
SWIDTH 623 0
DWIDTH 8 0
BBX 7 7 1 0
BITMAP
78
CC
0C
7C
CC
CC
76
ENDCHAR
STARTCHAR b
ENCODING 98
SWIDTH 696 0
DWIDTH 9 0
BBX 6 10 2 0
BITMAP
C0
C0
C0
D8
EC
CC
CC
CC
CC
F8
ENDCHAR
STARTCHAR c
ENCODING 99
SWIDTH 545 0
DWIDTH 7 0
BBX 6 7 1 0
BITMAP
78
CC
C0
C0
C0
C4
78
ENDCHAR
STARTCHAR d
ENCODING 100
SWIDTH 696 0
DWIDTH 8 0
BBX 6 10 1 0
BITMAP
0C
0C
0C
7C
CC
CC
CC
CC
DC
6C
ENDCHAR
STARTCHAR e
ENCODING 101
SWIDTH 614 0
DWIDTH 8 0
BBX 6 7 1 0
BITMAP
78
CC
CC
FC
C0
C4
78
ENDCHAR
STARTCHAR f
ENCODING 102
SWIDTH 461 0
DWIDTH 6 0
BBX 5 10 1 0
BITMAP
38
60
60
F8
60
60
60
60
60
60
ENDCHAR
STARTCHAR g
ENCODING 103
SWIDTH 696 0
DWIDTH 8 0
BBX 6 9 1 -2
BITMAP
7C
CC
CC
CC
DC
6C
0C
CC
78
ENDCHAR
STARTCHAR h
ENCODING 104
SWIDTH 693 0
DWIDTH 9 0
BBX 6 10 2 0
BITMAP
C0
C0
C0
D8
EC
CC
CC
CC
CC
CC
ENDCHAR
STARTCHAR i
ENCODING 105
SWIDTH 361 0
DWIDTH 5 0
BBX 2 10 2 0
BITMAP
C0
C0
00
C0
C0
C0
C0
C0
C0
C0
ENDCHAR
STARTCHAR j
ENCODING 106
SWIDTH 361 0
DWIDTH 5 0
BBX 4 12 0 -2
BITMAP
30
30
00
30
30
30
30
30
30
30
30
E0
ENDCHAR
STARTCHAR k
ENCODING 107
SWIDTH 681 0
DWIDTH 8 0
BBX 6 10 2 0
BITMAP
C0
C0
C0
CC
C8
D0
F0
D8
CC
CC
ENDCHAR
STARTCHAR l
ENCODING 108
SWIDTH 361 0
DWIDTH 5 0
BBX 2 10 2 0
BITMAP
C0
C0
C0
C0
C0
C0
C0
C0
C0
C0
ENDCHAR
STARTCHAR m
ENCODING 109
SWIDTH 1006 0
DWIDTH 13 0
BBX 10 7 2 0
BITMAP
D980
EEC0
CCC0
CCC0
CCC0
CCC0
CCC0
ENDCHAR
STARTCHAR n
ENCODING 110
SWIDTH 693 0
DWIDTH 9 0
BBX 6 7 2 0
BITMAP
D8
EC
CC
CC
CC
CC
CC
ENDCHAR
STARTCHAR o
ENCODING 111
SWIDTH 675 0
DWIDTH 8 0
BBX 6 7 1 0
BITMAP
78
CC
CC
CC
CC
CC
78
ENDCHAR
STARTCHAR p
ENCODING 112
SWIDTH 696 0
DWIDTH 9 0
BBX 6 9 2 -2
BITMAP
D8
EC
CC
CC
CC
CC
F8
C0
C0
ENDCHAR
STARTCHAR q
ENCODING 113
SWIDTH 696 0
DWIDTH 8 0
BBX 6 9 1 -2
BITMAP
7C
CC
CC
CC
CC
DC
6C
0C
0C
ENDCHAR
STARTCHAR r
ENCODING 114
SWIDTH 500 0
DWIDTH 6 0
BBX 5 7 1 0
BITMAP
D8
D8
E0
C0
C0
C0
C0
ENDCHAR
STARTCHAR s
ENCODING 115
SWIDTH 622 0
DWIDTH 8 0
BBX 6 7 1 0
BITMAP
7C
C0
E0
78
1C
0C
F8
ENDCHAR
STARTCHAR t
ENCODING 116
SWIDTH 436 0
DWIDTH 5 0
BBX 5 9 0 0
BITMAP
20
60
F8
60
60
60
60
60
38
ENDCHAR
STARTCHAR u
ENCODING 117
SWIDTH 693 0
DWIDTH 9 0
BBX 6 7 2 0
BITMAP
CC
CC
CC
CC
CC
DC
6C
ENDCHAR
STARTCHAR v
ENCODING 118
SWIDTH 663 0
DWIDTH 8 0
BBX 6 7 1 0
BITMAP
CC
CC
CC
68
68
30
30
ENDCHAR
STARTCHAR w
ENCODING 119
SWIDTH 885 0
DWIDTH 11 0
BBX 10 7 1 0
BITMAP
C0C0
CCC0
6D80
6D80
7F80
3300
3300
ENDCHAR
STARTCHAR x
ENCODING 120
SWIDTH 568 0
DWIDTH 7 0
BBX 6 7 1 0
BITMAP
CC
CC
68
30
58
CC
CC
ENDCHAR
STARTCHAR y
ENCODING 121
SWIDTH 645 0
DWIDTH 8 0
BBX 7 9 1 -2
BITMAP
C6
C6
C4
6C
68
38
30
60
60
ENDCHAR
STARTCHAR z
ENCODING 122
SWIDTH 608 0
DWIDTH 7 0
BBX 5 7 1 0
BITMAP
F8
18
30
70
60
C0
F8
ENDCHAR
STARTCHAR braceleft
ENCODING 123
SWIDTH 386 0
DWIDTH 5 0
BBX 4 11 1 -1
BITMAP
70
C0
C0
60
20
C0
20
60
C0
C0
70
ENDCHAR
STARTCHAR bar
ENCODING 124
SWIDTH 265 0
DWIDTH 4 0
BBX 2 11 1 -1
BITMAP
C0
C0
C0
C0
C0
C0
C0
C0
C0
C0
C0
ENDCHAR
STARTCHAR braceright
ENCODING 125
SWIDTH 386 0
DWIDTH 5 0
BBX 4 11 0 -1
BITMAP
E0
30
30
60
40
30
40
60
30
30
E0
ENDCHAR
STARTCHAR asciitilde
ENCODING 126
SWIDTH 687 0
DWIDTH 8 0
BBX 6 2 1 4
BITMAP
74
B8
ENDCHAR
STARTCHAR afii10051
ENCODING 128
SWIDTH 1000 0
DWIDTH 12 0
BBX 10 9 1 0
BITMAP
FF00
1800
1800
1F00
1980
18C0
18C0
1980
1B00
ENDCHAR
STARTCHAR afii10052
ENCODING 129
SWIDTH 666 0
DWIDTH 8 0
BBX 6 11 2 0
BITMAP
18
30
00
FC
C0
C0
C0
C0
C0
C0
C0
ENDCHAR
STARTCHAR quotesinglbase
ENCODING 130
SWIDTH 265 0
DWIDTH 3 0
BBX 2 4 1 -2
BITMAP
C0
C0
40
80
ENDCHAR
STARTCHAR afii10100
ENCODING 131
SWIDTH 500 0
DWIDTH 6 0
BBX 5 10 1 0
BITMAP
18
30
00
F8
C0
C0
C0
C0
C0
C0
ENDCHAR
STARTCHAR quotedblbase
ENCODING 132
SWIDTH 530 0
DWIDTH 7 0
BBX 5 4 1 -2
BITMAP
D8
D8
48
90
ENDCHAR
STARTCHAR ellipsis
ENCODING 133
SWIDTH 1000 0
DWIDTH 8 0
BBX 6 2 2 0
BITMAP
CC
CC
ENDCHAR
STARTCHAR dagger
ENCODING 134
SWIDTH 693 0
DWIDTH 8 0
BBX 6 10 1 -1
BITMAP
30
30
30
FC
30
30
30
30
30
30
ENDCHAR
STARTCHAR daggerdbl
ENCODING 135
SWIDTH 693 0
DWIDTH 8 0
BBX 6 10 1 -1
BITMAP
30
30
30
FC
30
30
FC
30
30
30
ENDCHAR
STARTCHAR Euro
ENCODING 136
SWIDTH 750 0
DWIDTH 9 0
BBX 8 9 1 0
BITMAP
1E
33
60
FC
60
FC
60
31
1E
ENDCHAR
STARTCHAR perthousand
ENCODING 137
SWIDTH 1313 0
DWIDTH 16 0
BBX 16 9 0 0
BITMAP
70C0
D980
DB00
7600
0400
0DCE
1B7B
337B
61CE
ENDCHAR
STARTCHAR afii10058
ENCODING 138
SWIDTH 1083 0
DWIDTH 13 0
BBX 12 9 1 0
BITMAP
3F00
3300
3300
33C0
3320
3330
6330
6330
C3E0
ENDCHAR
STARTCHAR guilsinglleft
ENCODING 139
SWIDTH 361 0
DWIDTH 5 0
BBX 4 5 0 1
BITMAP
30
60
C0
60
30
ENDCHAR
STARTCHAR afii10059
ENCODING 140
SWIDTH 1083 0
DWIDTH 13 0
BBX 11 9 2 0
BITMAP
C600
C600
C600
FF80
C640
C660
C660
C660
C7C0
ENDCHAR
STARTCHAR afii10061
ENCODING 141
SWIDTH 750 0
DWIDTH 9 0
BBX 7 11 2 0
BITMAP
18
30
00
C6
CC
D8
F0
D8
DC
CC
C6
ENDCHAR
STARTCHAR afii10060
ENCODING 142
SWIDTH 1000 0
DWIDTH 12 0
BBX 10 9 1 0
BITMAP
FF00
1800
1800
1F00
1980
18C0
18C0
18C0
18C0
ENDCHAR
STARTCHAR afii10145
ENCODING 143
SWIDTH 833 0
DWIDTH 10 0
BBX 7 10 2 -1
BITMAP
C6
C6
C6
C6
C6
C6
C6
C6
FE
18
ENDCHAR
STARTCHAR afii10099
ENCODING 144
SWIDTH 750 0
DWIDTH 9 0
BBX 7 12 1 -2
BITMAP
60
F8
60
6C
76
66
66
66
66
66
06
1C
ENDCHAR
STARTCHAR quoteleft
ENCODING 145
SWIDTH 265 0
DWIDTH 3 0
BBX 2 4 1 6
BITMAP
40
80
C0
C0
ENDCHAR
STARTCHAR quoteright
ENCODING 146
SWIDTH 265 0
DWIDTH 3 0
BBX 2 4 1 6
BITMAP
C0
C0
40
80
ENDCHAR
STARTCHAR quotedblleft
ENCODING 147
SWIDTH 530 0
DWIDTH 7 0
BBX 5 4 1 6
BITMAP
48
90
D8
D8
ENDCHAR
STARTCHAR quotedblright
ENCODING 148
SWIDTH 530 0
DWIDTH 7 0
BBX 5 4 1 6
BITMAP
D8
D8
48
90
ENDCHAR
STARTCHAR bullet
ENCODING 149
SWIDTH 687 0
DWIDTH 8 0
BBX 4 4 2 2
BITMAP
F0
F0
F0
F0
ENDCHAR
STARTCHAR endash
ENCODING 150
SWIDTH 500 0
DWIDTH 6 0
BBX 4 1 1 4
BITMAP
F0
ENDCHAR
STARTCHAR emdash
ENCODING 151
SWIDTH 1000 0
DWIDTH 13 0
BBX 11 1 1 4
BITMAP
FFE0
ENDCHAR
STARTCHAR trademark
ENCODING 153
SWIDTH 901 0
DWIDTH 11 0
BBX 8 4 2 5
BITMAP
FB
55
55
51
ENDCHAR
STARTCHAR afii10106
ENCODING 154
SWIDTH 1083 0
DWIDTH 13 0
BBX 11 7 1 0
BITMAP
3E00
3600
3600
37C0
6660
6660
C7C0
ENDCHAR
STARTCHAR guilsinglright
ENCODING 155
SWIDTH 361 0
DWIDTH 5 0
BBX 4 5 1 1
BITMAP
C0
60
30
60
C0
ENDCHAR
STARTCHAR afii10107
ENCODING 156
SWIDTH 1083 0
DWIDTH 13 0
BBX 10 7 2 0
BITMAP
CC00
CC00
CC00
FF80
CCC0
CCC0
CF80
ENDCHAR
STARTCHAR afii10109
ENCODING 157
SWIDTH 666 0
DWIDTH 8 0
BBX 6 10 2 0
BITMAP
18
30
00
CC
C8
D0
F0
D8
CC
CC
ENDCHAR
STARTCHAR afii10108
ENCODING 158
SWIDTH 750 0
DWIDTH 9 0
BBX 7 10 1 0
BITMAP
60
F8
60
6C
76
66
66
66
66
66
ENDCHAR
STARTCHAR afii10193
ENCODING 159
SWIDTH 750 0
DWIDTH 9 0
BBX 6 8 2 -1
BITMAP
CC
CC
CC
CC
CC
CC
FC
30
ENDCHAR
STARTCHAR space
ENCODING 160
SWIDTH 343 0
DWIDTH 4 0
BBX 0 0 0 0
BITMAP
ENDCHAR
STARTCHAR afii10062
ENCODING 161
SWIDTH 750 0
DWIDTH 9 0
BBX 8 11 1 0
BITMAP
3C
00
C3
C3
62
66
34
3C
18
30
60
ENDCHAR
STARTCHAR afii10110
ENCODING 162
SWIDTH 666 0
DWIDTH 8 0
BBX 7 11 1 -2
BITMAP
38
00
C6
C6
C4
6C
68
38
30
60
60
ENDCHAR
STARTCHAR afii10057
ENCODING 163
SWIDTH 501 0
DWIDTH 6 0
BBX 4 10 1 -1
BITMAP
30
30
30
30
30
30
30
30
30
E0
ENDCHAR
STARTCHAR currency
ENCODING 164
SWIDTH 687 0
DWIDTH 8 0
BBX 8 9 0 0
BITMAP
81
C3
3C
66
66
66
3C
C3
81
ENDCHAR
STARTCHAR afii10050
ENCODING 165
SWIDTH 666 0
DWIDTH 8 0
BBX 6 10 2 0
BITMAP
0C
FC
C0
C0
C0
C0
C0
C0
C0
C0
ENDCHAR
STARTCHAR brokenbar
ENCODING 166
SWIDTH 265 0
DWIDTH 4 0
BBX 2 11 1 -1
BITMAP
C0
C0
C0
C0
00
00
00
C0
C0
C0
C0
ENDCHAR
STARTCHAR section
ENCODING 167
SWIDTH 693 0
DWIDTH 8 0
BBX 6 10 1 -1
BITMAP
78
CC
E0
78
9C
E4
78
1C
CC
78
ENDCHAR
STARTCHAR afii10023
ENCODING 168
SWIDTH 645 0
DWIDTH 8 0
BBX 6 11 2 0
BITMAP
48
48
00
FC
C0
C0
F8
C0
C0
C0
FC
ENDCHAR
STARTCHAR copyright
ENCODING 169
SWIDTH 825 0
DWIDTH 10 0
BBX 9 9 1 0
BITMAP
3E00
4100
9C80
B480
B080
B080
9C80
4100
3E00
ENDCHAR
STARTCHAR afii10053
ENCODING 170
SWIDTH 750 0
DWIDTH 9 0
BBX 7 9 2 0
BITMAP
3C
66
C0
C0
F8
C0
C0
62
3C
ENDCHAR
STARTCHAR guillemotleft
ENCODING 171
SWIDTH 614 0
DWIDTH 8 0
BBX 7 5 0 1
BITMAP
36
6C
D8
6C
36
ENDCHAR
STARTCHAR logicalnot
ENCODING 172
SWIDTH 687 0
DWIDTH 8 0
BBX 7 3 1 2
BITMAP
FE
02
02
ENDCHAR
STARTCHAR hyphen
ENCODING 173
SWIDTH 289 0
DWIDTH 4 0
BBX 3 1 1 4
BITMAP
E0
ENDCHAR
STARTCHAR registered
ENCODING 174
SWIDTH 687 0
DWIDTH 8 0
BBX 7 7 1 2
BITMAP
38
44
BA
B2
AA
44
38
ENDCHAR
STARTCHAR afii10056
ENCODING 175
SWIDTH 361 0
DWIDTH 5 0
BBX 4 11 1 0
BITMAP
90
90
00
60
60
60
60
60
60
60
60
ENDCHAR
STARTCHAR degree
ENCODING 176
SWIDTH 241 0
DWIDTH 3 0
BBX 4 3 0 6
BITMAP
60
90
60
ENDCHAR
STARTCHAR plusminus
ENCODING 177
SWIDTH 687 0
DWIDTH 8 0
BBX 7 7 1 1
BITMAP
10
10
FE
10
10
00
FE
ENDCHAR
STARTCHAR afii10055
ENCODING 178
SWIDTH 361 0
DWIDTH 5 0
BBX 2 9 2 0
BITMAP
C0
C0
C0
C0
C0
C0
C0
C0
C0
ENDCHAR
STARTCHAR afii10103
ENCODING 179
SWIDTH 361 0
DWIDTH 5 0
BBX 2 10 2 0
BITMAP
C0
C0
00
C0
C0
C0
C0
C0
C0
C0
ENDCHAR
STARTCHAR afii10098
ENCODING 180
SWIDTH 500 0
DWIDTH 6 0
BBX 5 8 1 0
BITMAP
18
F8
C0
C0
C0
C0
C0
C0
ENDCHAR
STARTCHAR mu
ENCODING 181
SWIDTH 699 0
DWIDTH 9 0
BBX 6 9 2 -2
BITMAP
CC
CC
CC
CC
CC
DC
EC
C0
C0
ENDCHAR
STARTCHAR paragraph
ENCODING 182
SWIDTH 693 0
DWIDTH 8 0
BBX 6 10 1 -1
BITMAP
7C
F4
F4
F4
74
14
14
14
14
14
ENDCHAR
STARTCHAR periodcentered
ENCODING 183
SWIDTH 343 0
DWIDTH 8 0
BBX 2 2 3 3
BITMAP
C0
C0
ENDCHAR
STARTCHAR afii10071
ENCODING 184
SWIDTH 614 0
DWIDTH 8 0
BBX 6 10 1 0
BITMAP
48
48
00
78
CC
CC
FC
C0
C4
78
ENDCHAR
STARTCHAR afii61352
ENCODING 185
SWIDTH 1083 0
DWIDTH 13 0
BBX 11 9 1 0
BITMAP
E200
E200
B2C0
B2A0
BAA0
9A60
8E00
8EE0
8600
ENDCHAR
STARTCHAR afii10101
ENCODING 186
SWIDTH 583 0
DWIDTH 7 0
BBX 6 7 1 0
BITMAP
78
CC
C0
F0
C0
C4
78
ENDCHAR
STARTCHAR guillemotright
ENCODING 187
SWIDTH 614 0
DWIDTH 8 0
BBX 7 5 1 1
BITMAP
D8
6C
36
6C
D8
ENDCHAR
STARTCHAR afii10105
ENCODING 188
SWIDTH 361 0
DWIDTH 5 0
BBX 4 12 0 -2
BITMAP
30
30
00
30
30
30
30
30
30
30
30
E0
ENDCHAR
STARTCHAR afii10054
ENCODING 189
SWIDTH 594 0
DWIDTH 8 0
BBX 6 9 1 0
BITMAP
78
CC
C0
E0
78
1C
0C
CC
78
ENDCHAR
STARTCHAR afii10102
ENCODING 190
SWIDTH 622 0
DWIDTH 8 0
BBX 6 7 1 0
BITMAP
7C
C0
E0
78
1C
0C
F8
ENDCHAR
STARTCHAR afii10104
ENCODING 191
SWIDTH 361 0
DWIDTH 5 0
BBX 4 10 1 0
BITMAP
90
90
00
60
60
60
60
60
60
60
ENDCHAR
STARTCHAR afii10017
ENCODING 192
SWIDTH 750 0
DWIDTH 9 0
BBX 7 9 1 0
BITMAP
18
18
2C
2C
4C
7E
C6
C6
C6
ENDCHAR
STARTCHAR afii10018
ENCODING 193
SWIDTH 750 0
DWIDTH 9 0
BBX 6 9 2 0
BITMAP
FC
C0
C0
C0
F0
C8
CC
CC
F8
ENDCHAR
STARTCHAR afii10019
ENCODING 194
SWIDTH 750 0
DWIDTH 9 0
BBX 6 9 2 0
BITMAP
F8
CC
CC
C8
F0
C8
CC
CC
F8
ENDCHAR
STARTCHAR afii10020
ENCODING 195
SWIDTH 666 0
DWIDTH 8 0
BBX 6 9 2 0
BITMAP
FC
C0
C0
C0
C0
C0
C0
C0
C0
ENDCHAR
STARTCHAR afii10021
ENCODING 196
SWIDTH 833 0
DWIDTH 10 0
BBX 9 10 1 -1
BITMAP
3F00
3300
3300
3300
3300
3300
6300
6300
FF80
C180
ENDCHAR
STARTCHAR afii10022
ENCODING 197
SWIDTH 666 0
DWIDTH 8 0
BBX 6 9 2 0
BITMAP
FC
C0
C0
C0
F8
C0
C0
C0
FC
ENDCHAR
STARTCHAR afii10024
ENCODING 198
SWIDTH 1083 0
DWIDTH 13 0
BBX 12 9 1 0
BITMAP
C630
6660
2640
1680
1F80
36C0
76E0
6660
C630
ENDCHAR
STARTCHAR afii10025
ENCODING 199
SWIDTH 750 0
DWIDTH 9 0
BBX 6 9 2 0
BITMAP
78
CC
0C
08
30
08
0C
8C
78
ENDCHAR
STARTCHAR afii10026
ENCODING 200
SWIDTH 833 0
DWIDTH 10 0
BBX 7 9 2 0
BITMAP
8E
8E
9A
9A
BA
B2
E2
E2
C2
ENDCHAR
STARTCHAR afii10027
ENCODING 201
SWIDTH 833 0
DWIDTH 10 0
BBX 7 11 2 0
BITMAP
38
00
8E
8E
9A
9A
BA
B2
E2
E2
C2
ENDCHAR
STARTCHAR afii10028
ENCODING 202
SWIDTH 750 0
DWIDTH 9 0
BBX 7 9 2 0
BITMAP
C6
CC
C8
D0
F0
D8
DC
CC
C6
ENDCHAR
STARTCHAR afii10029
ENCODING 203
SWIDTH 833 0
DWIDTH 10 0
BBX 8 9 1 0
BITMAP
3F
33
33
33
33
33
63
63
C3
ENDCHAR
STARTCHAR afii10030
ENCODING 204
SWIDTH 1000 0
DWIDTH 12 0
BBX 9 9 2 0
BITMAP
E380
E380
E380
B580
B580
B580
9980
9980
8180
ENDCHAR
STARTCHAR afii10031
ENCODING 205
SWIDTH 833 0
DWIDTH 10 0
BBX 7 9 2 0
BITMAP
C6
C6
C6
C6
FE
C6
C6
C6
C6
ENDCHAR
STARTCHAR afii10032
ENCODING 206
SWIDTH 916 0
DWIDTH 11 0
BBX 8 9 2 0
BITMAP
3C
66
C3
C3
C3
C3
C3
66
3C
ENDCHAR
STARTCHAR afii10033
ENCODING 207
SWIDTH 833 0
DWIDTH 10 0
BBX 7 9 2 0
BITMAP
FE
C6
C6
C6
C6
C6
C6
C6
C6
ENDCHAR
STARTCHAR afii10034
ENCODING 208
SWIDTH 666 0
DWIDTH 8 0
BBX 6 9 2 0
BITMAP
F8
CC
CC
CC
C8
F0
C0
C0
C0
ENDCHAR
STARTCHAR afii10035
ENCODING 209
SWIDTH 750 0
DWIDTH 9 0
BBX 7 9 2 0
BITMAP
3C
66
C0
C0
C0
C0
C0
62
3C
ENDCHAR
STARTCHAR afii10036
ENCODING 210
SWIDTH 750 0
DWIDTH 9 0
BBX 8 9 1 0
BITMAP
FF
18
18
18
18
18
18
18
18
ENDCHAR
STARTCHAR afii10037
ENCODING 211
SWIDTH 750 0
DWIDTH 9 0
BBX 8 9 1 0
BITMAP
C3
C3
62
66
34
3C
18
30
60
ENDCHAR
STARTCHAR afii10038
ENCODING 212
SWIDTH 1083 0
DWIDTH 13 0
BBX 10 9 2 0
BITMAP
0C00
3F00
6D80
CCC0
CCC0
CCC0
6D80
3F00
0C00
ENDCHAR
STARTCHAR afii10039
ENCODING 213
SWIDTH 750 0
DWIDTH 9 0
BBX 7 9 1 0
BITMAP
C6
C6
6C
78
38
6C
6C
C6
C6
ENDCHAR
STARTCHAR afii10040
ENCODING 214
SWIDTH 833 0
DWIDTH 10 0
BBX 8 10 2 -1
BITMAP
C6
C6
C6
C6
C6
C6
C6
C6
FF
03
ENDCHAR
STARTCHAR afii10041
ENCODING 215
SWIDTH 833 0
DWIDTH 10 0
BBX 7 9 2 0
BITMAP
C6
C6
C6
C6
66
3E
06
06
06
ENDCHAR
STARTCHAR afii10042
ENCODING 216
SWIDTH 1083 0
DWIDTH 13 0
BBX 10 9 2 0
BITMAP
CCC0
CCC0
CCC0
CCC0
CCC0
CCC0
CCC0
CCC0
FFC0
ENDCHAR
STARTCHAR afii10043
ENCODING 217
SWIDTH 1083 0
DWIDTH 13 0
BBX 11 10 2 -1
BITMAP
CCC0
CCC0
CCC0
CCC0
CCC0
CCC0
CCC0
CCC0
FFE0
0060
ENDCHAR
STARTCHAR afii10044
ENCODING 218
SWIDTH 750 0
DWIDTH 9 0
BBX 8 9 1 0
BITMAP
F0
30
30
3C
32
33
33
33
3E
ENDCHAR
STARTCHAR afii10045
ENCODING 219
SWIDTH 1083 0
DWIDTH 13 0
BBX 10 9 2 0
BITMAP
C0C0
C0C0
C0C0
F0C0
C8C0
CCC0
CCC0
CCC0
F8C0
ENDCHAR
STARTCHAR afii10046
ENCODING 220
SWIDTH 666 0
DWIDTH 8 0
BBX 6 9 2 0
BITMAP
C0
C0
C0
F0
C8
CC
CC
CC
F8
ENDCHAR
STARTCHAR afii10047
ENCODING 221
SWIDTH 750 0
DWIDTH 9 0
BBX 7 9 1 0
BITMAP
78
CC
06
06
3E
06
06
8C
78
ENDCHAR
STARTCHAR afii10048
ENCODING 222
SWIDTH 1250 0
DWIDTH 15 0
BBX 12 9 2 0
BITMAP
C3C0
C660
CC30
CC30
FC30
CC30
CC30
C660
C3C0
ENDCHAR
STARTCHAR afii10049
ENCODING 223
SWIDTH 750 0
DWIDTH 9 0
BBX 7 9 1 0
BITMAP
3E
66
66
26
1E
36
36
66
E6
ENDCHAR
STARTCHAR afii10065
ENCODING 224
SWIDTH 666 0
DWIDTH 8 0
BBX 7 7 1 0
BITMAP
78
CC
0C
7C
CC
CC
76
ENDCHAR
STARTCHAR afii10066
ENCODING 225
SWIDTH 666 0
DWIDTH 8 0
BBX 6 10 1 0
BITMAP
3C
60
C0
D8
EC
CC
CC
CC
CC
78
ENDCHAR
STARTCHAR afii10067
ENCODING 226
SWIDTH 750 0
DWIDTH 9 0
BBX 6 7 2 0
BITMAP
F8
CC
CC
F8
CC
CC
F8
ENDCHAR
STARTCHAR afii10068
ENCODING 227
SWIDTH 500 0
DWIDTH 6 0
BBX 5 7 1 0
BITMAP
F8
C0
C0
C0
C0
C0
C0
ENDCHAR
STARTCHAR afii10069
ENCODING 228
SWIDTH 750 0
DWIDTH 9 0
BBX 8 8 1 -1
BITMAP
3E
36
36
36
66
66
FF
C3
ENDCHAR
STARTCHAR afii10070
ENCODING 229
SWIDTH 666 0
DWIDTH 8 0
BBX 6 7 1 0
BITMAP
78
CC
CC
FC
C0
C4
78
ENDCHAR
STARTCHAR afii10072
ENCODING 230
SWIDTH 916 0
DWIDTH 11 0
BBX 10 7 1 0
BITMAP
CCC0
4C80
2D00
3F00
6D80
CCC0
CCC0
ENDCHAR
STARTCHAR afii10073
ENCODING 231
SWIDTH 666 0
DWIDTH 8 0
BBX 6 7 1 0
BITMAP
78
CC
0C
38
0C
8C
78
ENDCHAR
STARTCHAR afii10074
ENCODING 232
SWIDTH 750 0
DWIDTH 9 0
BBX 6 7 2 0
BITMAP
8C
9C
9C
B4
E4
E4
C4
ENDCHAR
STARTCHAR afii10075
ENCODING 233
SWIDTH 750 0
DWIDTH 9 0
BBX 6 9 2 0
BITMAP
30
00
8C
9C
9C
B4
E4
E4
C4
ENDCHAR
STARTCHAR afii10076
ENCODING 234
SWIDTH 666 0
DWIDTH 8 0
BBX 6 7 2 0
BITMAP
CC
C8
D0
F0
D8
CC
CC
ENDCHAR
STARTCHAR afii10077
ENCODING 235
SWIDTH 750 0
DWIDTH 9 0
BBX 7 7 1 0
BITMAP
3E
36
36
36
66
66
C6
ENDCHAR
STARTCHAR afii10078
ENCODING 236
SWIDTH 1000 0
DWIDTH 12 0
BBX 9 7 2 0
BITMAP
E380
E380
B580
B580
9980
9980
8180
ENDCHAR
STARTCHAR afii10079
ENCODING 237
SWIDTH 750 0
DWIDTH 9 0
BBX 6 7 2 0
BITMAP
CC
CC
CC
FC
CC
CC
CC
ENDCHAR
STARTCHAR afii10080
ENCODING 238
SWIDTH 666 0
DWIDTH 8 0
BBX 6 7 1 0
BITMAP
78
CC
CC
CC
CC
CC
78
ENDCHAR
STARTCHAR afii10081
ENCODING 239
SWIDTH 750 0
DWIDTH 9 0
BBX 6 7 2 0
BITMAP
FC
CC
CC
CC
CC
CC
CC
ENDCHAR
STARTCHAR afii10082
ENCODING 240
SWIDTH 750 0
DWIDTH 9 0
BBX 6 9 2 -2
BITMAP
D8
EC
CC
CC
CC
CC
F8
C0
C0
ENDCHAR
STARTCHAR afii10083
ENCODING 241
SWIDTH 583 0
DWIDTH 7 0
BBX 6 7 1 0
BITMAP
78
CC
C0
C0
C0
C4
78
ENDCHAR
STARTCHAR afii10084
ENCODING 242
SWIDTH 583 0
DWIDTH 7 0
BBX 6 7 1 0
BITMAP
FC
30
30
30
30
30
30
ENDCHAR
STARTCHAR afii10085
ENCODING 243
SWIDTH 666 0
DWIDTH 8 0
BBX 7 9 1 -2
BITMAP
C6
C6
C4
6C
68
38
30
60
60
ENDCHAR
STARTCHAR afii10086
ENCODING 244
SWIDTH 1000 0
DWIDTH 12 0
BBX 10 12 1 -2
BITMAP
0C00
0C00
0C00
7F80
CCC0
CCC0
CCC0
CCC0
CCC0
7F80
0C00
0C00
ENDCHAR
STARTCHAR afii10087
ENCODING 245
SWIDTH 583 0
DWIDTH 7 0
BBX 6 7 1 0
BITMAP
CC
CC
68
30
58
CC
CC
ENDCHAR
STARTCHAR afii10088
ENCODING 246
SWIDTH 750 0
DWIDTH 9 0
BBX 7 8 2 -1
BITMAP
CC
CC
CC
CC
CC
CC
FE
06
ENDCHAR
STARTCHAR afii10089
ENCODING 247
SWIDTH 750 0
DWIDTH 9 0
BBX 6 7 2 0
BITMAP
CC
CC
CC
DC
6C
0C
0C
ENDCHAR
STARTCHAR afii10090
ENCODING 248
SWIDTH 1083 0
DWIDTH 13 0
BBX 10 7 2 0
BITMAP
CCC0
CCC0
CCC0
CCC0
CCC0
CCC0
FFC0
ENDCHAR
STARTCHAR afii10091
ENCODING 249
SWIDTH 1083 0
DWIDTH 13 0
BBX 11 8 2 -1
BITMAP
CCC0
CCC0
CCC0
CCC0
CCC0
CCC0
FFE0
0060
ENDCHAR
STARTCHAR afii10092
ENCODING 250
SWIDTH 833 0
DWIDTH 10 0
BBX 8 7 1 0
BITMAP
F0
30
30
3E
33
33
3E
ENDCHAR
STARTCHAR afii10093
ENCODING 251
SWIDTH 1083 0
DWIDTH 13 0
BBX 10 7 2 0
BITMAP
C0C0
C0C0
C0C0
F8C0
CCC0
CCC0
F8C0
ENDCHAR
STARTCHAR afii10094
ENCODING 252
SWIDTH 750 0
DWIDTH 9 0
BBX 6 7 2 0
BITMAP
C0
C0
C0
F8
CC
CC
F8
ENDCHAR
STARTCHAR afii10095
ENCODING 253
SWIDTH 666 0
DWIDTH 8 0
BBX 6 7 1 0
BITMAP
78
CC
0C
3C
0C
8C
78
ENDCHAR
STARTCHAR afii10096
ENCODING 254
SWIDTH 1000 0
DWIDTH 12 0
BBX 10 7 1 0
BITMAP
C780
CCC0
CCC0
FCC0
CCC0
CCC0
C780
ENDCHAR
STARTCHAR afii10097
ENCODING 255
SWIDTH 666 0
DWIDTH 8 0
BBX 6 7 1 0
BITMAP
7C
CC
CC
7C
6C
CC
CC
ENDCHAR
STARTCHAR fl
ENCODING -1
SWIDTH 711 0
DWIDTH 9 0
BBX 7 10 1 0
BITMAP
3E
66
66
FE
66
66
66
66
66
66
ENDCHAR
STARTCHAR Zcaron
ENCODING -1
SWIDTH 675 0
DWIDTH 8 0
BBX 6 11 1 0
BITMAP
58
30
00
FC
0C
18
38
70
60
C0
FC
ENDCHAR
STARTCHAR oe
ENCODING -1
SWIDTH 990 0
DWIDTH 12 0
BBX 10 7 1 0
BITMAP
7780
CCC0
CCC0
CFC0
CC00
CC40
7780
ENDCHAR
STARTCHAR Ydieresis
ENCODING -1
SWIDTH 738 0
DWIDTH 9 0
BBX 8 11 1 0
BITMAP
24
24
00
C3
C3
66
3C
18
18
18
18
ENDCHAR
STARTCHAR dotlessi
ENCODING -1
SWIDTH 361 0
DWIDTH 5 0
BBX 2 7 2 0
BITMAP
C0
C0
C0
C0
C0
C0
C0
ENDCHAR
STARTCHAR lslash
ENCODING -1
SWIDTH 361 0
DWIDTH 6 0
BBX 6 10 0 0
BITMAP
30
30
30
3C
F0
30
30
30
30
30
ENDCHAR
STARTCHAR Lslash
ENCODING -1
SWIDTH 620 0
DWIDTH 8 0
BBX 8 9 0 0
BITMAP
30
30
30
3C
F0
30
30
30
3F
ENDCHAR
STARTCHAR fi
ENCODING -1
SWIDTH 711 0
DWIDTH 9 0
BBX 7 10 1 0
BITMAP
3E
66
60
FE
66
66
66
66
66
66
ENDCHAR
STARTCHAR OE
ENCODING -1
SWIDTH 1102 0
DWIDTH 13 0
BBX 11 9 1 0
BITMAP
3BE0
6700
C300
C300
C3C0
C300
C300
6700
3BE0
ENDCHAR
STARTCHAR caron
ENCODING -1
SWIDTH 675 0
DWIDTH 8 0
BBX 4 2 2 8
BITMAP
B0
60
ENDCHAR
STARTCHAR ogonek
ENCODING -1
SWIDTH 675 0
DWIDTH 8 0
BBX 4 2 3 -2
BITMAP
C0
70
ENDCHAR
STARTCHAR hungarumlaut
ENCODING -1
SWIDTH 675 0
DWIDTH 8 0
BBX 5 2 2 8
BITMAP
D8
90
ENDCHAR
STARTCHAR dotaccent
ENCODING -1
SWIDTH 675 0
DWIDTH 8 0
BBX 2 2 3 8
BITMAP
C0
C0
ENDCHAR
STARTCHAR breve
ENCODING -1
SWIDTH 675 0
DWIDTH 8 0
BBX 5 2 1 8
BITMAP
88
70
ENDCHAR
STARTCHAR tilde
ENCODING -1
SWIDTH 675 0
DWIDTH 8 0
BBX 5 2 2 8
BITMAP
68
B0
ENDCHAR
STARTCHAR circumflex
ENCODING -1
SWIDTH 675 0
DWIDTH 8 0
BBX 4 2 2 8
BITMAP
60
B0
ENDCHAR
STARTCHAR scaron
ENCODING -1
SWIDTH 622 0
DWIDTH 8 0
BBX 6 10 1 0
BITMAP
58
30
00
7C
C0
E0
78
1C
0C
F8
ENDCHAR
STARTCHAR ring
ENCODING -1
SWIDTH 675 0
DWIDTH 8 0
BBX 4 3 2 8
BITMAP
60
B0
60
ENDCHAR
STARTCHAR florin
ENCODING -1
SWIDTH 687 0
DWIDTH 8 0
BBX 7 10 1 -1
BITMAP
1C
32
30
30
F8
60
60
C0
C0
C0
ENDCHAR
STARTCHAR fraction
ENCODING -1
SWIDTH 93 0
DWIDTH 6 0
BBX 6 9 0 0
BITMAP
0C
0C
18
18
30
60
60
C0
C0
ENDCHAR
STARTCHAR Scaron
ENCODING -1
SWIDTH 594 0
DWIDTH 8 0
BBX 6 11 1 0
BITMAP
58
30
00
78
CC
C0
F8
7C
0C
CC
78
ENDCHAR
STARTCHAR zcaron
ENCODING -1
SWIDTH 608 0
DWIDTH 7 0
BBX 5 10 1 0
BITMAP
58
30
00
F8
18
30
70
60
C0
F8
ENDCHAR
ENDFONT
